<?xml version="1.0"?>
<!DOCTYPE svg PUBLIC "-//W3C//DTD SVG 1.0//EN" "http://www.w3.org/TR/2001/REC-SVG-20010904/DTD/svg10.dtd">
<svg xmlns="http://www.w3.org/2000/svg" xmlns:xlink="http://www.w3.org/1999/xlink" width="700px" height="700px">
<path fill-rule="evenodd" fill="#3e6548" d="M 372 547 C 372 547 413.593 524.566 443 492 C 472.407 459.434 490 417 490 417 C 490 417 498.943 445.937 501 497 C 503.057 548.063 498 621 498 621 C 498 621 372 547 372 547 z" />
<path fill-rule="evenodd" fill="#5fad56" d="M 517 355 C 551.392 390.569 586 526 586 526 C 586 526 569.205 536.263 550 541 C 530.795 545.737 510 545 510 545 C 510 545 517.478 452.325 489 394 C 460.522 335.675 396 312 396 312 C 396 312 467.139 303.433 517 355 z" />
<path fill-rule="evenodd" fill="#5fad56" d="M 626 476 C 615.231 501.847 592 521 592 521 C 592 521 570.406 400.53 519 347 C 469.778 295.744 359 302 359 302 C 359 302 457.856 252.801 525 286 C 628.426 337.138 636.769 450.153 626 476 z" />
<path fill-rule="evenodd" fill="#3e6548" d="M 511 265 C 511 265 470.907 240.184 428 231 C 385.093 221.816 339 228 339 228 C 339 228 359.807 205.313 403 178 C 446.193 150.687 512 119 512 119 C 512 119 511 265 511 265 z" />
<path fill-rule="evenodd" fill="#5fad56" d="M 272 236 C 285.608 188.431 386 90 386 90 C 386 90 402.296 99.7369 416 114 C 429.704 128.263 440 147 440 147 C 440 147 356.272 186.175 320 240 C 283.728 293.825 295 362 295 362 C 295 362 252.272 304.965 272 236 z" />
<path fill-rule="evenodd" fill="#5fad56" d="M 322 81 C 349.769 77.4026 378 87 378 87 C 378 87 284.655 166.716 264 238 C 244.222 306.256 305 399 305 399 C 305 399 212.821 337.748 208 263 C 200.574 147.862 294.231 84.5974 322 81 z" />
<path fill-rule="evenodd" fill="#3e6548" d="M 197 286 C 197 286 195.5 333.25 209 375 C 222.5 416.75 251 453 251 453 C 251 453 221.25 446.75 176 423 C 130.75 399.25 70 358 70 358 C 70 358 197 286 197 286 z" />
<path fill-rule="evenodd" fill="#5fad56" d="M 291 507 C 243 519 108 482 108 482 C 108 482 108.5 462 114 443 C 119.5 424 130 406 130 406 C 130 406 206.25 459.5 271 464 C 335.75 468.5 389 424 389 424 C 389 424 360.589 489.603 291 507 z" />
<path fill-rule="evenodd" fill="#5fad56" d="M 132 541 C 115 518.75 110 490 110 490 C 110 490 224.939 530.754 297 513 C 366 496 416 397 416 397 C 416 397 409.323 507.451 347 549 C 251 613 149 563.25 132 541 z" />
</svg>
